<svg width="41" height="41" viewBox="0 0 41 41" fill="none" xmlns="http://www.w3.org/2000/svg">
<g filter="url(#filter0_d_238_6298)">
<rect x="2" y="1" width="37" height="37" rx="18.5" fill="#6F11F2"/>
<path fill-rule="evenodd" clip-rule="evenodd" d="M14.7513 12.5H26.2575L28.375 18.625V26.5H25.75V24.75H15.25V26.5H12.625V18.625L14.7513 12.5ZM14.375 20.8125C14.375 21.5388 14.9613 22.125 15.6875 22.125C16.4138 22.125 17 21.5388 17 20.8125C17 20.0863 16.4138 19.5 15.6875 19.5C14.9613 19.5 14.375 20.0863 14.375 20.8125ZM25.3125 22.125C24.5863 22.125 24 21.5388 24 20.8125C24 20.0863 24.5863 19.5 25.3125 19.5C26.0388 19.5 26.625 20.0863 26.625 20.8125C26.625 21.5388 26.0388 22.125 25.3125 22.125ZM15.6875 13.8125L14.375 17.75H26.625L25.3125 13.8125H15.6875Z" fill="white"/>
</g>
<defs>
<filter id="filter0_d_238_6298" x="0" y="0" width="41" height="41" filterUnits="userSpaceOnUse" color-interpolation-filters="sRGB">
<feFlood flood-opacity="0" result="BackgroundImageFix"/>
<feColorMatrix in="SourceAlpha" type="matrix" values="0 0 0 0 0 0 0 0 0 0 0 0 0 0 0 0 0 0 127 0" result="hardAlpha"/>
<feOffset dy="1"/>
<feGaussianBlur stdDeviation="1"/>
<feColorMatrix type="matrix" values="0 0 0 0 0.121569 0 0 0 0 0.160784 0 0 0 0 0.215686 0 0 0 0.08 0"/>
<feBlend mode="normal" in2="BackgroundImageFix" result="effect1_dropShadow_238_6298"/>
<feBlend mode="normal" in="SourceGraphic" in2="effect1_dropShadow_238_6298" result="shape"/>
</filter>
</defs>
</svg>
